<mxfile host="app.diagrams.net" modified="2023-10-16T03:05:09.398Z" agent="Mozilla/5.0 (Macintosh; Intel Mac OS X 10_15_7) AppleWebKit/537.36 (KHTML, like Gecko) Chrome/118.0.0.0 Safari/537.36" version="22.0.4" etag="lZrt3KCCPCVXl0KZMEGn" type="github">
  <diagram name="Page-1" id="nqYa9KnJUnecivfQdeI6">
    <mxGraphModel>
      <root>
        <mxCell id="0" />
        <mxCell id="1" parent="0" />
      </root>
    </mxGraphModel>
  </diagram>
</mxfile>
